<svg xmlns="http://www.w3.org/2000/svg" width="2402" height="2403" viewBox="0 0 2402 2403" version="1.1"><path d="M 1160.500 76.594 C 363.840 116.064, -122.020 992.370, 246.557 1725 C 567.443 2362.833, 1375.582 2525.849, 1899.998 2058.529 C 2411.267 1602.925, 2403.848 775.961, 1884.500 331.063 C 1681.832 157.448, 1415.804 63.945, 1160.500 76.594 M 1052.500 387.097 C 1045.900 387.505, 1031.725 388.313, 1021 388.893 C 996.701 390.207, 987.154 390.947, 979.500 392.111 C 976.200 392.612, 969.900 393.488, 965.500 394.058 C 961.100 394.627, 955.475 395.529, 953 396.062 C 950.525 396.594, 944.675 397.489, 940 398.049 C 935.325 398.610, 928.350 399.444, 924.500 399.904 C 920.650 400.363, 916.233 401.248, 914.685 401.869 C 913.137 402.491, 910.189 403, 908.135 403 C 906.081 403, 903.925 403.475, 903.344 404.056 C 902.764 404.636, 899.411 405.572, 895.894 406.136 C 892.378 406.700, 887.163 407.532, 884.306 407.987 C 881.450 408.441, 878.525 409.192, 877.806 409.656 C 877.088 410.119, 873.800 411.019, 870.500 411.655 C 860.867 413.511, 846.762 417.131, 843.349 418.623 C 841.616 419.380, 839.568 420, 838.799 420 C 838.029 420, 836.901 420.499, 836.291 421.109 C 835.681 421.719, 833.903 422.339, 832.341 422.487 C 829.099 422.794, 824.786 424.269, 820.669 426.480 C 819.112 427.316, 817.215 428, 816.453 428 C 815.691 428, 813.365 428.740, 811.284 429.645 C 809.203 430.550, 806.150 431.859, 804.500 432.554 C 802.850 433.249, 799.096 434.984, 796.158 436.409 C 793.219 437.834, 790.370 439, 789.825 439 C 789.280 439, 785.200 440.800, 780.758 443 C 776.317 445.200, 772.038 447, 771.249 447 C 770.461 447, 768.671 447.900, 767.273 449 C 765.874 450.100, 764.116 451, 763.365 451 C 762.614 451, 762 451.375, 762 451.833 C 762 452.292, 758.625 454.196, 754.500 456.066 C 750.375 457.936, 747 459.755, 747 460.110 C 747 460.464, 744.638 461.768, 741.750 463.007 C 738.862 464.247, 734.583 466.577, 732.239 468.186 C 729.895 469.795, 726.408 471.767, 724.489 472.569 C 722.570 473.371, 721 474.418, 721 474.897 C 721 475.375, 720.212 476.039, 719.250 476.372 C 718.288 476.704, 716.313 477.769, 714.863 478.738 C 713.412 479.707, 708.462 482.876, 703.863 485.780 C 692.064 493.229, 670.366 508.281, 663.500 513.779 C 662.950 514.219, 657.100 518.579, 650.500 523.468 C 643.900 528.356, 636.429 534.188, 633.898 536.428 C 631.367 538.667, 625.967 543.389, 621.898 546.920 C 613.567 554.150, 575 592.972, 575 594.128 C 575 594.540, 573.629 596.367, 571.952 598.188 C 568.350 602.103, 540.653 638.824, 539.661 641 C 539.286 641.825, 538.195 643.686, 537.239 645.136 C 534.110 649.878, 520 673.097, 520 673.503 C 520 673.721, 518.650 675.900, 517 678.345 C 515.350 680.790, 514 683.486, 514 684.336 C 514 685.186, 513.522 686.177, 512.938 686.538 C 512.354 686.899, 511.455 688.163, 510.941 689.347 C 510.426 690.531, 509.585 692.175, 509.072 693 C 508.099 694.565, 501.691 708.098, 498.091 716.189 C 496.944 718.769, 495.554 721.158, 495.003 721.498 C 494.451 721.839, 494 722.806, 494 723.647 C 494 724.488, 492.650 728.093, 491 731.658 C 489.350 735.223, 488 738.618, 488 739.202 C 488 739.786, 487.143 741.667, 486.096 743.382 C 485.050 745.097, 483.642 748.525, 482.968 751 C 482.295 753.475, 480.493 758.200, 478.965 761.500 C 477.437 764.800, 475.965 768.625, 475.695 770 C 475.188 772.572, 473.612 777.232, 471.467 782.500 C 468.754 789.163, 466.565 796.283, 465.010 803.500 C 464.536 805.700, 463.442 808.850, 462.580 810.500 C 461.718 812.150, 461.010 814.711, 461.006 816.191 C 461.003 817.671, 460.550 819.160, 460 819.500 C 459.450 819.840, 459.002 821.554, 459.005 823.309 C 459.009 826.174, 457.902 830.448, 454.810 839.500 C 454.247 841.150, 453.449 844.300, 453.037 846.500 C 450.459 860.273, 449.641 863.847, 448.394 866.784 C 447.627 868.590, 447 872.068, 447 874.514 C 447 876.959, 446.379 880.656, 445.621 882.730 C 444.863 884.803, 443.487 891.900, 442.563 898.500 C 441.640 905.100, 440.235 913.489, 439.442 917.143 C 438.649 920.797, 438 925.664, 438 927.959 C 438 930.254, 437.459 933.114, 436.798 934.316 C 436.137 935.517, 435.293 942.125, 434.922 949 C 434.551 955.875, 433.763 967.575, 433.171 975 C 430.740 1005.491, 429.810 1024.070, 430.217 1034 C 431.084 1055.089, 433.105 1083.614, 434.044 1088 C 434.574 1090.475, 435.054 1096.723, 435.111 1101.884 C 435.172 1107.409, 435.787 1112.639, 436.607 1114.602 C 437.373 1116.436, 438 1119.959, 438 1122.433 C 438 1124.906, 438.651 1128.858, 439.446 1131.215 C 440.241 1133.572, 441.403 1139.325, 442.027 1144 C 442.652 1148.675, 443.403 1154.300, 443.696 1156.500 C 443.988 1158.700, 444.852 1161.715, 445.614 1163.200 C 446.376 1164.686, 447 1167.264, 447 1168.930 C 447 1170.596, 447.625 1173.656, 448.389 1175.730 C 449.153 1177.803, 450.323 1182.200, 450.989 1185.500 C 452.124 1191.119, 453.159 1194.673, 457.473 1207.759 C 458.427 1210.651, 458.962 1213.656, 458.663 1214.436 C 458.364 1215.216, 458.767 1216.392, 459.559 1217.049 C 460.352 1217.707, 461 1219.485, 461 1221 C 461 1222.515, 461.675 1224.315, 462.500 1225 C 463.325 1225.685, 464 1226.946, 464 1227.802 C 464 1229.854, 468.081 1242.233, 469.159 1243.450 C 469.621 1243.972, 470 1245.253, 470 1246.296 C 470 1247.338, 470.618 1249.386, 471.373 1250.846 C 473.975 1255.876, 476 1261.072, 476 1262.718 C 476 1264.686, 479.785 1272.749, 481.087 1273.553 C 481.589 1273.864, 482 1274.776, 482 1275.580 C 482 1276.384, 483.311 1279.845, 484.913 1283.271 C 486.516 1286.697, 488.823 1291.750, 490.042 1294.500 C 493.503 1302.313, 501.968 1320.180, 503.781 1323.500 C 504.683 1325.150, 506.422 1328.300, 507.646 1330.500 C 508.871 1332.700, 511.252 1337.200, 512.937 1340.500 C 514.623 1343.800, 517.425 1348.750, 519.164 1351.500 C 520.903 1354.250, 523.845 1359.409, 525.701 1362.964 C 527.557 1366.519, 529.452 1369.669, 529.912 1369.964 C 530.373 1370.259, 531.608 1372.075, 532.658 1374 C 534.964 1378.231, 538.924 1384.528, 544.128 1392.239 C 546.257 1395.395, 548 1398.330, 548 1398.760 C 548 1399.402, 555.810 1410.800, 558.785 1414.500 C 559.227 1415.050, 560.683 1417.075, 562.019 1419 C 572.934 1434.722, 590.721 1458.497, 600.924 1471 C 604.289 1475.125, 609.675 1481.883, 612.891 1486.019 C 616.107 1490.154, 619.472 1494.147, 620.369 1494.891 C 621.266 1495.636, 622 1496.644, 622 1497.131 C 622 1498.058, 624.119 1500.617, 632.585 1509.915 C 635.381 1512.987, 639.233 1517.300, 641.144 1519.500 C 643.055 1521.700, 650.876 1530.475, 658.525 1539 C 666.173 1547.525, 673.347 1555.559, 674.466 1556.853 C 680.599 1563.946, 709.265 1594.854, 721.998 1608.104 C 723.374 1609.536, 730.125 1616.716, 737 1624.059 C 743.875 1631.403, 751.075 1639.035, 753 1641.021 C 756.017 1644.133, 763.934 1652.873, 772.147 1662.160 C 773.441 1663.624, 777.200 1667.833, 780.500 1671.516 C 783.800 1675.198, 788.075 1680.152, 790 1682.525 C 791.925 1684.898, 796.200 1689.970, 799.500 1693.797 C 802.800 1697.623, 806.625 1702.257, 808 1704.093 C 809.375 1705.930, 811.175 1708.152, 812 1709.031 C 815.186 1712.426, 820 1718.927, 820 1719.834 C 820 1720.358, 820.675 1721.045, 821.500 1721.362 C 822.325 1721.678, 823 1722.485, 823 1723.154 C 823 1723.824, 824.776 1726.477, 826.946 1729.051 C 829.116 1731.624, 831.845 1735.560, 833.011 1737.797 C 834.177 1740.034, 835.776 1742.400, 836.565 1743.054 C 837.354 1743.709, 838 1744.671, 838 1745.192 C 838 1745.713, 839.276 1748.021, 840.836 1750.320 C 845.571 1757.297, 854.797 1776.249, 856.990 1783.500 C 857.656 1785.700, 858.830 1788.774, 859.600 1790.331 C 860.370 1791.888, 861 1794.715, 861 1796.613 C 861 1798.511, 861.647 1801.613, 862.438 1803.505 C 863.228 1805.398, 863.910 1808.646, 863.953 1810.723 C 864.058 1815.803, 864.560 1819.450, 866.058 1826 C 867.693 1833.153, 867.641 1954.967, 865.997 1968.500 C 865.395 1973.450, 864.657 1984.210, 864.355 1992.411 C 864.054 2000.612, 863.220 2009.274, 862.502 2011.661 L 861.196 2016 1133.598 2016 L 1406 2016 1406.081 1986.250 C 1406.194 1944.565, 1409.093 1883.798, 1411.083 1881.400 C 1411.653 1880.713, 1412.374 1876.180, 1412.685 1871.326 C 1412.995 1866.471, 1413.644 1861.742, 1414.125 1860.816 C 1414.606 1859.889, 1415.015 1856.964, 1415.034 1854.316 C 1415.053 1851.667, 1415.937 1847.700, 1417 1845.500 C 1418.063 1843.300, 1418.947 1840.514, 1418.966 1839.309 C 1418.985 1838.104, 1419.450 1836.840, 1420 1836.500 C 1420.550 1836.160, 1421 1834.645, 1421 1833.132 C 1421 1831.620, 1421.661 1829.509, 1422.468 1828.441 C 1423.276 1827.374, 1423.951 1825.543, 1423.968 1824.372 C 1423.986 1823.202, 1424.675 1821.685, 1425.500 1821 C 1426.325 1820.315, 1427 1819.126, 1427 1818.358 C 1427 1816.439, 1431.200 1810.019, 1434.380 1807.076 C 1435.821 1805.742, 1437.006 1804.167, 1437.013 1803.576 C 1437.030 1802.166, 1448.259 1794.889, 1454 1792.568 C 1456.475 1791.567, 1459.850 1790.185, 1461.500 1789.497 C 1469.366 1786.216, 1475.674 1784.492, 1485.500 1782.938 C 1488.800 1782.416, 1492.175 1781.707, 1493 1781.362 C 1496.136 1780.053, 1508.889 1777.864, 1518.500 1776.987 C 1524 1776.485, 1530.525 1775.627, 1533 1775.080 C 1535.475 1774.534, 1539.833 1774.068, 1542.685 1774.044 C 1545.537 1774.020, 1549.137 1773.487, 1550.685 1772.859 C 1552.233 1772.232, 1559.575 1771.355, 1567 1770.910 C 1574.425 1770.466, 1581.850 1769.894, 1583.500 1769.640 C 1585.150 1769.386, 1590.723 1768.902, 1595.884 1768.565 C 1601.046 1768.228, 1605.694 1767.689, 1606.215 1767.367 C 1606.735 1767.046, 1611.815 1766.410, 1617.502 1765.955 C 1623.190 1765.500, 1629.566 1764.681, 1631.672 1764.135 C 1636.576 1762.865, 1647.817 1761.033, 1654.387 1760.433 C 1659.299 1759.985, 1666.590 1758.142, 1674 1755.475 C 1675.925 1754.782, 1679.525 1753.636, 1682 1752.927 C 1684.475 1752.219, 1687.042 1751.233, 1687.704 1750.735 C 1688.367 1750.238, 1690.617 1748.919, 1692.704 1747.805 C 1694.792 1746.690, 1697.703 1745.138, 1699.173 1744.354 C 1702.757 1742.445, 1717.487 1726.686, 1720.201 1721.856 C 1721.393 1719.735, 1722.735 1718, 1723.184 1718 C 1723.633 1718, 1724 1717.573, 1724 1717.050 C 1724 1716.528, 1725.350 1714.100, 1727 1711.655 C 1728.650 1709.210, 1730 1706.543, 1730 1705.727 C 1730 1704.912, 1730.675 1703.685, 1731.500 1703 C 1732.325 1702.315, 1733 1701.010, 1733 1700.100 C 1733 1699.190, 1733.603 1697.557, 1734.341 1696.473 C 1735.078 1695.388, 1736.486 1692.025, 1737.470 1689 C 1738.454 1685.975, 1739.842 1681.925, 1740.556 1680 C 1744.201 1670.167, 1744.068 1622.040, 1740.377 1614.800 C 1739.620 1613.314, 1739 1610.113, 1739 1607.686 C 1739 1605.259, 1738.536 1600.849, 1737.968 1597.886 C 1735.233 1583.616, 1737.286 1551.420, 1741.009 1550.167 C 1741.554 1549.983, 1742 1548.850, 1742 1547.649 C 1742 1546.447, 1743.130 1543.802, 1744.510 1541.770 C 1745.891 1539.738, 1747.465 1537.046, 1748.008 1535.788 C 1748.551 1534.529, 1749.376 1532.825, 1749.842 1532 C 1760.712 1512.750, 1764.160 1491.569, 1758.401 1479.433 C 1756.595 1475.628, 1749.401 1468, 1747.618 1468 C 1746.987 1468, 1744.886 1467.151, 1742.949 1466.113 C 1739.731 1464.388, 1735.691 1463.902, 1722.500 1463.651 C 1715.625 1463.520, 1690.990 1465.144, 1684.500 1466.156 C 1674.707 1467.682, 1613.765 1467.856, 1611.911 1466.363 C 1611.135 1465.738, 1608.590 1464.911, 1606.255 1464.526 C 1603.921 1464.141, 1601.757 1463.415, 1601.446 1462.913 C 1601.136 1462.411, 1600.086 1462, 1599.114 1462 C 1590.089 1462, 1584.288 1444.818, 1591.250 1438.708 C 1595.231 1435.215, 1608.042 1429, 1611.263 1429 C 1612.558 1429, 1614.491 1428.339, 1615.559 1427.532 C 1616.626 1426.724, 1618.978 1426.049, 1620.785 1426.032 C 1622.592 1426.014, 1625.067 1425.384, 1626.285 1424.630 C 1627.503 1423.877, 1631.425 1422.715, 1635 1422.047 C 1640.955 1420.936, 1650.136 1418.525, 1659 1415.744 C 1662.452 1414.661, 1668.160 1413.438, 1675 1412.314 C 1676.925 1411.998, 1679.388 1411.123, 1680.473 1410.370 C 1681.557 1409.616, 1683.289 1409, 1684.321 1409 C 1685.353 1409, 1687.744 1408.266, 1689.635 1407.369 C 1691.525 1406.472, 1693.338 1406.004, 1693.663 1406.329 C 1693.988 1406.655, 1695.827 1406.264, 1697.749 1405.460 C 1699.671 1404.657, 1702.034 1404, 1703 1404 C 1703.965 1404, 1705.319 1403.321, 1706.007 1402.491 C 1706.696 1401.661, 1709.011 1400.702, 1711.152 1400.360 C 1713.293 1400.017, 1715.286 1399.346, 1715.581 1398.869 C 1715.876 1398.391, 1717.161 1398, 1718.437 1398 C 1719.712 1398, 1721.315 1397.325, 1722 1396.500 C 1722.685 1395.675, 1724.295 1395, 1725.578 1395 C 1726.861 1395, 1729.569 1393.875, 1731.595 1392.500 C 1733.621 1391.125, 1735.934 1390, 1736.735 1390 C 1742.035 1390, 1762 1372.956, 1762 1368.432 C 1762 1367.779, 1762.675 1366.685, 1763.500 1366 C 1764.325 1365.315, 1765.003 1363.798, 1765.006 1362.628 C 1765.010 1361.457, 1765.725 1359.150, 1766.597 1357.500 C 1768.784 1353.358, 1768.797 1339.575, 1766.617 1335.500 C 1765.735 1333.850, 1765.010 1331.739, 1765.006 1330.809 C 1765.003 1329.879, 1764.551 1328.841, 1764.003 1328.502 C 1763.455 1328.163, 1761.888 1325.549, 1760.520 1322.693 C 1759.152 1319.837, 1756.901 1315.482, 1755.517 1313.015 C 1754.133 1310.549, 1753 1307.763, 1753 1306.824 C 1753 1305.886, 1752.550 1304.840, 1752 1304.500 C 1751.450 1304.160, 1750.997 1302.896, 1750.994 1301.691 C 1750.990 1300.486, 1750.283 1298.150, 1749.421 1296.500 C 1747.053 1291.963, 1746.945 1274.823, 1749.270 1272.254 C 1750.221 1271.203, 1751 1270.010, 1751 1269.605 C 1751 1267.585, 1757.464 1260.936, 1767.910 1252.208 C 1774.285 1246.882, 1781.278 1240.832, 1783.451 1238.762 C 1785.625 1236.693, 1787.762 1235, 1788.201 1235 C 1788.641 1235, 1789 1234.550, 1789 1234.001 C 1789 1233.452, 1791.363 1230.535, 1794.250 1227.520 C 1798.832 1222.736, 1801.642 1218.086, 1807.559 1205.500 C 1813.259 1193.374, 1813.043 1168.643, 1807.186 1162.786 C 1806.534 1162.134, 1806 1161.006, 1806 1160.280 C 1806 1155.235, 1788.795 1135.206, 1772.995 1121.857 C 1769.973 1119.303, 1764.350 1114.555, 1760.500 1111.305 C 1756.650 1108.054, 1750.575 1103.213, 1747 1100.546 C 1743.425 1097.879, 1740.140 1095.090, 1739.700 1094.349 C 1739.260 1093.607, 1738.360 1092.999, 1737.700 1092.999 C 1737.040 1092.998, 1735.150 1091.819, 1733.500 1090.378 C 1731.850 1088.937, 1728.047 1085.900, 1725.049 1083.629 C 1710.599 1072.684, 1681 1043.031, 1681 1039.500 C 1681 1039.108, 1679.763 1037.148, 1678.250 1035.144 C 1674.552 1030.244, 1671.683 1024.984, 1672.346 1024.321 C 1672.643 1024.024, 1672.012 1022.149, 1670.943 1020.155 C 1669.874 1018.161, 1669 1015.115, 1669 1013.387 C 1669 1011.658, 1668.325 1008.629, 1667.500 1006.654 C 1665.382 1001.586, 1665.382 945.628, 1667.500 936 C 1668.286 932.425, 1668.961 925.900, 1669 921.500 C 1669.038 917.100, 1669.720 909.900, 1670.515 905.500 C 1672.202 896.166, 1672.544 862.561, 1670.994 858.485 C 1670.441 857.030, 1669.583 851.176, 1669.089 845.477 C 1668.594 839.778, 1667.865 834.591, 1667.470 833.952 C 1667.075 833.312, 1666.370 828.674, 1665.903 823.644 C 1664.773 811.463, 1663.235 801.950, 1662 799.500 C 1661.445 798.400, 1660.571 794.800, 1660.058 791.500 C 1659.545 788.200, 1658.371 783.025, 1657.450 780 C 1656.529 776.975, 1655.443 772.475, 1655.036 770 C 1654.630 767.525, 1653.558 764.150, 1652.655 762.500 C 1651.751 760.850, 1651.010 758.931, 1651.006 758.236 C 1651.003 757.541, 1650.613 756.191, 1650.141 755.236 C 1648.606 752.133, 1646 743.285, 1646 741.175 C 1646 740.044, 1645.579 738.858, 1645.064 738.539 C 1644.549 738.221, 1643.120 734.707, 1641.888 730.730 C 1640.656 726.754, 1639.053 722.612, 1638.324 721.527 C 1637.596 720.443, 1637 718.822, 1637 717.926 C 1637 717.031, 1635.875 714.182, 1634.500 711.596 C 1633.125 709.010, 1632 706.368, 1632 705.724 C 1632 704.142, 1621.145 681.625, 1616.465 673.500 C 1615.198 671.300, 1614.125 668.890, 1614.081 668.144 C 1614.036 667.399, 1612.851 665.423, 1611.447 663.755 C 1610.043 662.086, 1608.639 659.444, 1608.327 657.883 C 1608.014 656.322, 1607.138 654.530, 1606.379 653.900 C 1605.621 653.270, 1605 652.389, 1605 651.941 C 1605 651.493, 1602.975 648.169, 1600.500 644.553 C 1598.025 640.938, 1596 637.730, 1596 637.424 C 1596 637.117, 1594.875 635.392, 1593.500 633.589 C 1592.125 631.786, 1591 629.996, 1591 629.611 C 1591 629.226, 1588.862 626.057, 1586.250 622.569 C 1583.638 619.080, 1580.825 615.222, 1580 613.995 C 1579.175 612.768, 1577.263 610.021, 1575.750 607.891 C 1574.237 605.760, 1573 603.730, 1573 603.380 C 1573 603.029, 1571.537 601.081, 1569.750 599.050 C 1563.974 592.488, 1562.001 590, 1561.972 589.242 C 1561.957 588.834, 1560.559 587.150, 1558.867 585.500 C 1557.174 583.850, 1553.924 580.284, 1551.645 577.576 C 1546.694 571.695, 1536.204 560.281, 1533.750 558.106 C 1532.787 557.253, 1532 556.206, 1532 555.778 C 1532 555.350, 1531.100 554.100, 1530 553 C 1528.900 551.900, 1528 551.305, 1528 551.679 C 1528 552.052, 1525.545 549.802, 1522.544 546.679 C 1519.543 543.555, 1516.828 541, 1516.510 541 C 1516.193 541, 1514.457 539.524, 1512.653 537.720 C 1508.135 533.202, 1477.295 507, 1476.496 507 C 1476.140 507, 1473.295 505.048, 1470.174 502.662 C 1467.053 500.275, 1457.525 493.769, 1449 488.204 C 1440.475 482.638, 1432.998 477.654, 1432.384 477.128 C 1431.770 476.602, 1427.270 474.034, 1422.384 471.421 C 1417.498 468.807, 1410.800 465.187, 1407.500 463.376 C 1404.200 461.565, 1400.263 459.570, 1398.750 458.943 C 1397.237 458.317, 1396 457.398, 1396 456.902 C 1396 456.406, 1395.272 456, 1394.383 456 C 1393.493 456, 1387.637 453.525, 1381.368 450.500 C 1375.100 447.475, 1369.358 445, 1368.608 445 C 1367.858 445, 1366.685 444.325, 1366 443.500 C 1365.315 442.675, 1364.023 441.986, 1363.128 441.968 C 1362.232 441.951, 1360.626 441.276, 1359.559 440.468 C 1358.491 439.661, 1356.828 439, 1355.862 439 C 1354.896 439, 1351.990 437.875, 1349.404 436.500 C 1346.818 435.125, 1343.930 434, 1342.986 434 C 1342.042 434, 1340.144 433.115, 1338.769 432.033 C 1337.393 430.951, 1335.982 430.351, 1335.632 430.701 C 1335.283 431.050, 1333.985 430.871, 1332.748 430.302 C 1328.060 428.145, 1319.409 425, 1318.165 425 C 1317.452 425, 1315.886 424.470, 1314.684 423.822 C 1313.483 423.175, 1311.600 422.555, 1310.500 422.446 C 1309.400 422.336, 1306.025 421.248, 1303 420.027 C 1299.975 418.806, 1295.925 417.453, 1294 417.021 C 1292.075 416.588, 1287.800 415.462, 1284.500 414.517 C 1281.200 413.572, 1276.174 412.218, 1273.331 411.509 C 1270.488 410.799, 1267.579 409.858, 1266.867 409.418 C 1265.585 408.625, 1261.506 407.747, 1251.118 406.028 C 1248.159 405.538, 1245.256 404.656, 1244.668 404.068 C 1244.081 403.481, 1241.876 403, 1239.768 403 C 1237.660 403, 1234.320 402.325, 1232.346 401.500 C 1230.371 400.675, 1227.400 400, 1225.743 400 C 1222.348 400, 1212.694 398.515, 1203 396.502 C 1199.425 395.760, 1193.180 394.860, 1189.123 394.503 C 1185.065 394.146, 1180.674 393.446, 1179.363 392.948 C 1176.391 391.818, 1158.743 390.188, 1136.500 388.990 C 1127.150 388.487, 1113.650 387.625, 1106.500 387.074 C 1092.043 385.962, 1070.711 385.971, 1052.500 387.097 M 2065.898 1115.423 C 2065.679 1115.635, 2063.925 1115.941, 2062 1116.102 C 2060.075 1116.264, 2057.938 1116.812, 2057.250 1117.320 C 2056.563 1117.829, 2056 1117.979, 2056 1117.654 C 2056 1116.971, 2046.704 1122.307, 2036.356 1128.929 C 2032.427 1131.443, 2027.252 1134.729, 2024.856 1136.231 C 2019.458 1139.615, 2019.216 1139.771, 2004.695 1149.250 C 1998.165 1153.513, 1992.567 1157, 1992.255 1157 C 1991.944 1157, 1990.214 1158.125, 1988.411 1159.500 C 1986.608 1160.875, 1984.874 1162, 1984.557 1162 C 1984.239 1162, 1979.902 1164.700, 1974.919 1168 C 1969.936 1171.300, 1965.660 1174, 1965.418 1174 C 1965.176 1174, 1962.340 1175.800, 1959.117 1178 C 1955.894 1180.200, 1952.787 1182, 1952.212 1182 C 1951.637 1182, 1951.017 1182.338, 1950.833 1182.750 C 1950.499 1183.503, 1942.807 1188.836, 1940 1190.262 C 1939.175 1190.681, 1937.294 1191.806, 1935.820 1192.762 C 1934.347 1193.718, 1928.722 1197.274, 1923.320 1200.664 C 1917.919 1204.055, 1911.475 1208.243, 1909 1209.971 C 1906.525 1211.700, 1902.250 1214.452, 1899.500 1216.087 C 1896.750 1217.722, 1892.475 1220.398, 1890 1222.034 C 1887.525 1223.669, 1884.237 1225.793, 1882.693 1226.754 C 1881.149 1227.714, 1875.749 1231.142, 1870.693 1234.371 C 1865.637 1237.599, 1859.550 1241.424, 1857.168 1242.871 C 1854.785 1244.317, 1848.554 1248.313, 1843.322 1251.750 C 1838.089 1255.188, 1833.467 1258, 1833.049 1258 C 1830.628 1258, 1820.693 1270.699, 1819.750 1275 C 1816.465 1289.972, 1822.060 1303.132, 1834 1308.518 C 1835.925 1309.386, 1838.312 1310.544, 1839.305 1311.091 C 1846.717 1315.175, 1859.123 1312.458, 1871.639 1304.011 C 1874.093 1302.355, 1876.308 1301, 1876.561 1301 C 1876.815 1301, 1879.660 1299.200, 1882.883 1297 C 1886.106 1294.800, 1888.997 1293, 1889.308 1293 C 1889.619 1293, 1892.831 1290.975, 1896.447 1288.500 C 1900.062 1286.025, 1903.259 1284, 1903.552 1284 C 1903.846 1284, 1906.522 1282.200, 1909.500 1280 C 1912.478 1277.800, 1915.177 1276, 1915.497 1276 C 1915.817 1276, 1918.418 1274.425, 1921.276 1272.500 C 1924.135 1270.575, 1926.836 1269, 1927.278 1269 C 1927.721 1269, 1928.974 1268.171, 1930.061 1267.158 C 1931.149 1266.144, 1934.767 1263.782, 1938.100 1261.908 C 1941.434 1260.033, 1945.363 1257.551, 1946.831 1256.391 C 1948.299 1255.231, 1950.884 1253.572, 1952.575 1252.705 C 1956.093 1250.902, 1968.261 1243.054, 1972.033 1240.155 C 1973.426 1239.084, 1978.826 1235.706, 1984.033 1232.648 C 1989.240 1229.590, 1993.950 1226.719, 1994.500 1226.269 C 1995.050 1225.818, 1998.441 1223.661, 2002.036 1221.475 C 2010.570 1216.284, 2010.340 1216.432, 2020.359 1209.750 C 2025.102 1206.588, 2029.366 1204, 2029.836 1204 C 2030.306 1204, 2031.505 1203.100, 2032.500 1202 C 2033.495 1200.900, 2034.860 1200, 2035.533 1200 C 2036.205 1200, 2037.281 1199.366, 2037.924 1198.592 C 2038.566 1197.818, 2040.534 1196.454, 2042.296 1195.561 C 2044.058 1194.669, 2048.875 1191.738, 2053 1189.048 C 2057.125 1186.358, 2065.675 1180.917, 2072 1176.956 C 2095.414 1162.296, 2102.096 1148.870, 2093.939 1132.881 C 2090.221 1125.592, 2078.800 1115.534, 2076.666 1117.668 C 2076.373 1117.961, 2075.541 1117.830, 2074.817 1117.378 C 2074.092 1116.926, 2072.851 1116.458, 2072.059 1116.339 C 2071.266 1116.219, 2069.645 1115.877, 2068.457 1115.579 C 2067.269 1115.280, 2066.118 1115.210, 2065.898 1115.423 M 2081.500 1360.619 C 2077.650 1360.792, 2043.450 1361.403, 2005.500 1361.976 C 1906.496 1363.472, 1849.939 1364.962, 1847.750 1366.134 C 1846.716 1366.687, 1844.990 1367.309, 1843.915 1367.516 C 1832.265 1369.760, 1822.960 1388.452, 1826.910 1401.679 C 1829.511 1410.391, 1841.942 1424.392, 1844.661 1421.673 C 1844.947 1421.387, 1847.053 1421.829, 1849.340 1422.655 C 1852.869 1423.930, 1858.661 1424.065, 1887.500 1423.543 C 1906.200 1423.205, 1941.075 1422.733, 1965 1422.495 C 2011.511 1422.033, 2050.450 1421.315, 2095.556 1420.088 L 2123.612 1419.324 2129.795 1416.029 C 2152.494 1403.930, 2152.049 1374.364, 2129 1363.185 C 2123.351 1360.445, 2106.104 1359.514, 2081.500 1360.619 M 1842.492 1489.696 C 1834.303 1492.089, 1815.286 1508, 1820.614 1508 C 1820.961 1508, 1820.771 1508.571, 1820.191 1509.270 C 1819.175 1510.495, 1819.244 1522.555, 1820.300 1528.131 C 1821.517 1534.564, 1826.635 1539.618, 1841 1548.575 C 1846.775 1552.176, 1854.875 1557.320, 1859 1560.006 C 1863.125 1562.692, 1868.300 1565.857, 1870.500 1567.038 C 1872.700 1568.219, 1875.400 1569.958, 1876.500 1570.901 C 1877.600 1571.845, 1882.775 1575.233, 1888 1578.430 C 1893.225 1581.627, 1898.739 1585.102, 1900.253 1586.154 C 1904.662 1589.214, 1909.466 1592.280, 1914.900 1595.500 C 1917.684 1597.150, 1919.971 1598.838, 1919.981 1599.250 C 1919.992 1599.662, 1920.472 1600, 1921.049 1600 C 1921.625 1600, 1924.807 1601.800, 1928.119 1604 C 1931.431 1606.200, 1934.376 1608, 1934.662 1608 C 1934.948 1608, 1937.729 1609.743, 1940.841 1611.873 C 1943.953 1614.004, 1949.200 1617.446, 1952.500 1619.523 C 1955.800 1621.599, 1961.495 1625.256, 1965.155 1627.649 C 1968.816 1630.042, 1972.043 1632, 1972.327 1632 C 1972.913 1632, 1985.199 1639.929, 1989 1642.761 C 1990.375 1643.785, 1993.300 1645.690, 1995.500 1646.994 C 1997.700 1648.299, 2002.425 1651.241, 2006 1653.533 C 2019.203 1661.998, 2021.511 1663.435, 2022 1663.494 C 2022.275 1663.527, 2027.675 1666.949, 2034 1671.098 C 2059.015 1687.509, 2065.579 1689.273, 2078.645 1683.091 C 2084.941 1680.113, 2093 1673.672, 2093 1671.619 C 2093 1670.987, 2093.900 1668.791, 2095 1666.739 C 2100.071 1657.278, 2091.259 1632, 2082.891 1632 C 2082.067 1632, 2076.581 1628.458, 2073.966 1626.238 C 2071.632 1624.256, 2062.110 1618, 2061.429 1618 C 2061.088 1618, 2055.789 1614.716, 2049.654 1610.702 C 2033.486 1600.124, 2022.541 1593.235, 2011.500 1586.686 C 2010.400 1586.034, 2007.281 1583.925, 2004.569 1582 C 2001.857 1580.075, 1997.699 1577.375, 1995.329 1576 C 1991.136 1573.567, 1968.429 1559.208, 1957.120 1551.837 C 1954.029 1549.823, 1949.025 1546.724, 1946 1544.950 C 1942.975 1543.176, 1939.175 1540.618, 1937.556 1539.264 C 1935.937 1537.911, 1933.687 1536.399, 1932.556 1535.904 C 1930.136 1534.846, 1929.254 1534.300, 1917.763 1526.750 C 1912.949 1523.588, 1908.752 1521, 1908.436 1521 C 1907.782 1521, 1898.765 1514.961, 1898 1514.011 C 1897.725 1513.670, 1893.675 1511.207, 1889 1508.538 C 1881.230 1504.103, 1874.257 1499.460, 1873 1497.885 C 1871.930 1496.543, 1860.224 1491.143, 1855.068 1489.612 C 1848.834 1487.761, 1849.119 1487.760, 1842.492 1489.696" stroke="none" fill="#b7f087" fill-rule="evenodd"/><path d="M 1144 76.104 C 199.433 128.895, -226.864 1343.369, 461.134 2021.517 C 1146.067 2696.644, 2279.170 2185.962, 2279.481 1202 C 2279.499 1145.968, 2279.118 1134.873, 2275.947 1099 C 2222.625 495.904, 1722.304 43.784, 1144 76.104 M 1160.500 76.594 C 363.840 116.064, -122.020 992.370, 246.557 1725 C 567.443 2362.833, 1375.582 2525.849, 1899.998 2058.529 C 2411.267 1602.925, 2403.848 775.961, 1884.500 331.063 C 1681.832 157.448, 1415.804 63.945, 1160.500 76.594 M 1052.500 387.097 C 1045.900 387.505, 1031.725 388.313, 1021 388.893 C 996.701 390.207, 987.154 390.947, 979.500 392.111 C 976.200 392.612, 969.900 393.488, 965.500 394.058 C 961.100 394.627, 955.475 395.529, 953 396.062 C 950.525 396.594, 944.675 397.489, 940 398.049 C 935.325 398.610, 928.350 399.444, 924.500 399.904 C 920.650 400.363, 916.233 401.248, 914.685 401.869 C 913.137 402.491, 910.189 403, 908.135 403 C 906.081 403, 903.925 403.475, 903.344 404.056 C 902.764 404.636, 899.411 405.572, 895.894 406.136 C 892.378 406.700, 887.163 407.532, 884.306 407.987 C 881.450 408.441, 878.525 409.192, 877.806 409.656 C 877.088 410.119, 873.800 411.019, 870.500 411.655 C 860.867 413.511, 846.762 417.131, 843.349 418.623 C 841.616 419.380, 839.568 420, 838.799 420 C 838.029 420, 836.901 420.499, 836.291 421.109 C 835.681 421.719, 833.903 422.339, 832.341 422.487 C 829.099 422.794, 824.786 424.269, 820.669 426.480 C 819.112 427.316, 817.215 428, 816.453 428 C 815.691 428, 813.365 428.740, 811.284 429.645 C 809.203 430.550, 806.150 431.859, 804.500 432.554 C 802.850 433.249, 799.096 434.984, 796.158 436.409 C 793.219 437.834, 790.370 439, 789.825 439 C 789.280 439, 785.200 440.800, 780.758 443 C 776.317 445.200, 772.038 447, 771.249 447 C 770.461 447, 768.671 447.900, 767.273 449 C 765.874 450.100, 764.116 451, 763.365 451 C 762.614 451, 762 451.375, 762 451.833 C 762 452.292, 758.625 454.196, 754.500 456.066 C 750.375 457.936, 747 459.755, 747 460.110 C 747 460.464, 744.638 461.768, 741.750 463.007 C 738.862 464.247, 734.583 466.577, 732.239 468.186 C 729.895 469.795, 726.408 471.767, 724.489 472.569 C 722.570 473.371, 721 474.418, 721 474.897 C 721 475.375, 720.212 476.039, 719.250 476.372 C 718.288 476.704, 716.313 477.769, 714.863 478.738 C 713.412 479.707, 708.462 482.876, 703.863 485.780 C 692.064 493.229, 670.366 508.281, 663.500 513.779 C 662.950 514.219, 657.100 518.579, 650.500 523.468 C 643.900 528.356, 636.429 534.188, 633.898 536.428 C 631.367 538.667, 625.967 543.389, 621.898 546.920 C 613.567 554.150, 575 592.972, 575 594.128 C 575 594.540, 573.629 596.367, 571.952 598.188 C 568.350 602.103, 540.653 638.824, 539.661 641 C 539.286 641.825, 538.195 643.686, 537.239 645.136 C 534.110 649.878, 520 673.097, 520 673.503 C 520 673.721, 518.650 675.900, 517 678.345 C 515.350 680.790, 514 683.486, 514 684.336 C 514 685.186, 513.522 686.177, 512.938 686.538 C 512.354 686.899, 511.455 688.163, 510.941 689.347 C 510.426 690.531, 509.585 692.175, 509.072 693 C 508.099 694.565, 501.691 708.098, 498.091 716.189 C 496.944 718.769, 495.554 721.158, 495.003 721.498 C 494.451 721.839, 494 722.806, 494 723.647 C 494 724.488, 492.650 728.093, 491 731.658 C 489.350 735.223, 488 738.618, 488 739.202 C 488 739.786, 487.143 741.667, 486.096 743.382 C 485.050 745.097, 483.642 748.525, 482.968 751 C 482.295 753.475, 480.493 758.200, 478.965 761.500 C 477.437 764.800, 475.965 768.625, 475.695 770 C 475.188 772.572, 473.612 777.232, 471.467 782.500 C 468.754 789.163, 466.565 796.283, 465.010 803.500 C 464.536 805.700, 463.442 808.850, 462.580 810.500 C 461.718 812.150, 461.010 814.711, 461.006 816.191 C 461.003 817.671, 460.550 819.160, 460 819.500 C 459.450 819.840, 459.002 821.554, 459.005 823.309 C 459.009 826.174, 457.902 830.448, 454.810 839.500 C 454.247 841.150, 453.449 844.300, 453.037 846.500 C 450.459 860.273, 449.641 863.847, 448.394 866.784 C 447.627 868.590, 447 872.068, 447 874.514 C 447 876.959, 446.379 880.656, 445.621 882.730 C 444.863 884.803, 443.487 891.900, 442.563 898.500 C 441.640 905.100, 440.235 913.489, 439.442 917.143 C 438.649 920.797, 438 925.664, 438 927.959 C 438 930.254, 437.459 933.114, 436.798 934.316 C 436.137 935.517, 435.293 942.125, 434.922 949 C 434.551 955.875, 433.763 967.575, 433.171 975 C 430.740 1005.491, 429.810 1024.070, 430.217 1034 C 431.084 1055.089, 433.105 1083.614, 434.044 1088 C 434.574 1090.475, 435.054 1096.723, 435.111 1101.884 C 435.172 1107.409, 435.787 1112.639, 436.607 1114.602 C 437.373 1116.436, 438 1119.959, 438 1122.433 C 438 1124.906, 438.651 1128.858, 439.446 1131.215 C 440.241 1133.572, 441.403 1139.325, 442.027 1144 C 442.652 1148.675, 443.403 1154.300, 443.696 1156.500 C 443.988 1158.700, 444.852 1161.715, 445.614 1163.200 C 446.376 1164.686, 447 1167.264, 447 1168.930 C 447 1170.596, 447.625 1173.656, 448.389 1175.730 C 449.153 1177.803, 450.323 1182.200, 450.989 1185.500 C 452.124 1191.119, 453.159 1194.673, 457.473 1207.759 C 458.427 1210.651, 458.962 1213.656, 458.663 1214.436 C 458.364 1215.216, 458.767 1216.392, 459.559 1217.049 C 460.352 1217.707, 461 1219.485, 461 1221 C 461 1222.515, 461.675 1224.315, 462.500 1225 C 463.325 1225.685, 464 1226.946, 464 1227.802 C 464 1229.854, 468.081 1242.233, 469.159 1243.450 C 469.621 1243.972, 470 1245.253, 470 1246.296 C 470 1247.338, 470.618 1249.386, 471.373 1250.846 C 473.975 1255.876, 476 1261.072, 476 1262.718 C 476 1264.686, 479.785 1272.749, 481.087 1273.553 C 481.589 1273.864, 482 1274.776, 482 1275.580 C 482 1276.384, 483.311 1279.845, 484.913 1283.271 C 486.516 1286.697, 488.823 1291.750, 490.042 1294.500 C 493.503 1302.313, 501.968 1320.180, 503.781 1323.500 C 504.683 1325.150, 506.422 1328.300, 507.646 1330.500 C 508.871 1332.700, 511.252 1337.200, 512.937 1340.500 C 514.623 1343.800, 517.425 1348.750, 519.164 1351.500 C 520.903 1354.250, 523.845 1359.409, 525.701 1362.964 C 527.557 1366.519, 529.452 1369.669, 529.912 1369.964 C 530.373 1370.259, 531.608 1372.075, 532.658 1374 C 534.964 1378.231, 538.924 1384.528, 544.128 1392.239 C 546.257 1395.395, 548 1398.330, 548 1398.760 C 548 1399.402, 555.810 1410.800, 558.785 1414.500 C 559.227 1415.050, 560.683 1417.075, 562.019 1419 C 572.934 1434.722, 590.721 1458.497, 600.924 1471 C 604.289 1475.125, 609.675 1481.883, 612.891 1486.019 C 616.107 1490.154, 619.472 1494.147, 620.369 1494.891 C 621.266 1495.636, 622 1496.644, 622 1497.131 C 622 1498.058, 624.119 1500.617, 632.585 1509.915 C 635.381 1512.987, 639.233 1517.300, 641.144 1519.500 C 643.055 1521.700, 650.876 1530.475, 658.525 1539 C 666.173 1547.525, 673.347 1555.559, 674.466 1556.853 C 680.599 1563.946, 709.265 1594.854, 721.998 1608.104 C 723.374 1609.536, 730.125 1616.716, 737 1624.059 C 743.875 1631.403, 751.075 1639.035, 753 1641.021 C 756.017 1644.133, 763.934 1652.873, 772.147 1662.160 C 773.441 1663.624, 777.200 1667.833, 780.500 1671.516 C 783.800 1675.198, 788.075 1680.152, 790 1682.525 C 791.925 1684.898, 796.200 1689.970, 799.500 1693.797 C 802.800 1697.623, 806.625 1702.257, 808 1704.093 C 809.375 1705.930, 811.175 1708.152, 812 1709.031 C 815.186 1712.426, 820 1718.927, 820 1719.834 C 820 1720.358, 820.675 1721.045, 821.500 1721.362 C 822.325 1721.678, 823 1722.485, 823 1723.154 C 823 1723.824, 824.776 1726.477, 826.946 1729.051 C 829.116 1731.624, 831.845 1735.560, 833.011 1737.797 C 834.177 1740.034, 835.776 1742.400, 836.565 1743.054 C 837.354 1743.709, 838 1744.671, 838 1745.192 C 838 1745.713, 839.276 1748.021, 840.836 1750.320 C 845.571 1757.297, 854.797 1776.249, 856.990 1783.500 C 857.656 1785.700, 858.830 1788.774, 859.600 1790.331 C 860.370 1791.888, 861 1794.715, 861 1796.613 C 861 1798.511, 861.647 1801.613, 862.438 1803.505 C 863.228 1805.398, 863.910 1808.646, 863.953 1810.723 C 864.058 1815.803, 864.560 1819.450, 866.058 1826 C 867.693 1833.153, 867.641 1954.967, 865.997 1968.500 C 865.395 1973.450, 864.657 1984.210, 864.355 1992.411 C 864.054 2000.612, 863.220 2009.274, 862.502 2011.661 L 861.196 2016 1133.598 2016 L 1406 2016 1406.081 1986.250 C 1406.194 1944.565, 1409.093 1883.798, 1411.083 1881.400 C 1411.653 1880.713, 1412.374 1876.180, 1412.685 1871.326 C 1412.995 1866.471, 1413.644 1861.742, 1414.125 1860.816 C 1414.606 1859.889, 1415.015 1856.964, 1415.034 1854.316 C 1415.053 1851.667, 1415.937 1847.700, 1417 1845.500 C 1418.063 1843.300, 1418.947 1840.514, 1418.966 1839.309 C 1418.985 1838.104, 1419.450 1836.840, 1420 1836.500 C 1420.550 1836.160, 1421 1834.645, 1421 1833.132 C 1421 1831.620, 1421.661 1829.509, 1422.468 1828.441 C 1423.276 1827.374, 1423.951 1825.543, 1423.968 1824.372 C 1423.986 1823.202, 1424.675 1821.685, 1425.500 1821 C 1426.325 1820.315, 1427 1819.126, 1427 1818.358 C 1427 1816.439, 1431.200 1810.019, 1434.380 1807.076 C 1435.821 1805.742, 1437.006 1804.167, 1437.013 1803.576 C 1437.030 1802.166, 1448.259 1794.889, 1454 1792.568 C 1456.475 1791.567, 1459.850 1790.185, 1461.500 1789.497 C 1469.366 1786.216, 1475.674 1784.492, 1485.500 1782.938 C 1488.800 1782.416, 1492.175 1781.707, 1493 1781.362 C 1496.136 1780.053, 1508.889 1777.864, 1518.500 1776.987 C 1524 1776.485, 1530.525 1775.627, 1533 1775.080 C 1535.475 1774.534, 1539.833 1774.068, 1542.685 1774.044 C 1545.537 1774.020, 1549.137 1773.487, 1550.685 1772.859 C 1552.233 1772.232, 1559.575 1771.355, 1567 1770.910 C 1574.425 1770.466, 1581.850 1769.894, 1583.500 1769.640 C 1585.150 1769.386, 1590.723 1768.902, 1595.884 1768.565 C 1601.046 1768.228, 1605.694 1767.689, 1606.215 1767.367 C 1606.735 1767.046, 1611.815 1766.410, 1617.502 1765.955 C 1623.190 1765.500, 1629.566 1764.681, 1631.672 1764.135 C 1636.576 1762.865, 1647.817 1761.033, 1654.387 1760.433 C 1659.299 1759.985, 1666.590 1758.142, 1674 1755.475 C 1675.925 1754.782, 1679.525 1753.636, 1682 1752.927 C 1684.475 1752.219, 1687.042 1751.233, 1687.704 1750.735 C 1688.367 1750.238, 1690.617 1748.919, 1692.704 1747.805 C 1694.792 1746.690, 1697.703 1745.138, 1699.173 1744.354 C 1702.757 1742.445, 1717.487 1726.686, 1720.201 1721.856 C 1721.393 1719.735, 1722.735 1718, 1723.184 1718 C 1723.633 1718, 1724 1717.573, 1724 1717.050 C 1724 1716.528, 1725.350 1714.100, 1727 1711.655 C 1728.650 1709.210, 1730 1706.543, 1730 1705.727 C 1730 1704.912, 1730.675 1703.685, 1731.500 1703 C 1732.325 1702.315, 1733 1701.010, 1733 1700.100 C 1733 1699.190, 1733.603 1697.557, 1734.341 1696.473 C 1735.078 1695.388, 1736.486 1692.025, 1737.470 1689 C 1738.454 1685.975, 1739.842 1681.925, 1740.556 1680 C 1744.201 1670.167, 1744.068 1622.040, 1740.377 1614.800 C 1739.620 1613.314, 1739 1610.113, 1739 1607.686 C 1739 1605.259, 1738.536 1600.849, 1737.968 1597.886 C 1735.233 1583.616, 1737.286 1551.420, 1741.009 1550.167 C 1741.554 1549.983, 1742 1548.850, 1742 1547.649 C 1742 1546.447, 1743.130 1543.802, 1744.510 1541.770 C 1745.891 1539.738, 1747.465 1537.046, 1748.008 1535.788 C 1748.551 1534.529, 1749.376 1532.825, 1749.842 1532 C 1760.712 1512.750, 1764.160 1491.569, 1758.401 1479.433 C 1756.595 1475.628, 1749.401 1468, 1747.618 1468 C 1746.987 1468, 1744.886 1467.151, 1742.949 1466.113 C 1739.731 1464.388, 1735.691 1463.902, 1722.500 1463.651 C 1715.625 1463.520, 1690.990 1465.144, 1684.500 1466.156 C 1674.707 1467.682, 1613.765 1467.856, 1611.911 1466.363 C 1611.135 1465.738, 1608.590 1464.911, 1606.255 1464.526 C 1603.921 1464.141, 1601.757 1463.415, 1601.446 1462.913 C 1601.136 1462.411, 1600.086 1462, 1599.114 1462 C 1590.089 1462, 1584.288 1444.818, 1591.250 1438.708 C 1595.231 1435.215, 1608.042 1429, 1611.263 1429 C 1612.558 1429, 1614.491 1428.339, 1615.559 1427.532 C 1616.626 1426.724, 1618.978 1426.049, 1620.785 1426.032 C 1622.592 1426.014, 1625.067 1425.384, 1626.285 1424.630 C 1627.503 1423.877, 1631.425 1422.715, 1635 1422.047 C 1640.955 1420.936, 1650.136 1418.525, 1659 1415.744 C 1662.452 1414.661, 1668.160 1413.438, 1675 1412.314 C 1676.925 1411.998, 1679.388 1411.123, 1680.473 1410.370 C 1681.557 1409.616, 1683.289 1409, 1684.321 1409 C 1685.353 1409, 1687.744 1408.266, 1689.635 1407.369 C 1691.525 1406.472, 1693.338 1406.004, 1693.663 1406.329 C 1693.988 1406.655, 1695.827 1406.264, 1697.749 1405.460 C 1699.671 1404.657, 1702.034 1404, 1703 1404 C 1703.965 1404, 1705.319 1403.321, 1706.007 1402.491 C 1706.696 1401.661, 1709.011 1400.702, 1711.152 1400.360 C 1713.293 1400.017, 1715.286 1399.346, 1715.581 1398.869 C 1715.876 1398.391, 1717.161 1398, 1718.437 1398 C 1719.712 1398, 1721.315 1397.325, 1722 1396.500 C 1722.685 1395.675, 1724.295 1395, 1725.578 1395 C 1726.861 1395, 1729.569 1393.875, 1731.595 1392.500 C 1733.621 1391.125, 1735.934 1390, 1736.735 1390 C 1742.035 1390, 1762 1372.956, 1762 1368.432 C 1762 1367.779, 1762.675 1366.685, 1763.500 1366 C 1764.325 1365.315, 1765.003 1363.798, 1765.006 1362.628 C 1765.010 1361.457, 1765.725 1359.150, 1766.597 1357.500 C 1768.784 1353.358, 1768.797 1339.575, 1766.617 1335.500 C 1765.735 1333.850, 1765.010 1331.739, 1765.006 1330.809 C 1765.003 1329.879, 1764.551 1328.841, 1764.003 1328.502 C 1763.455 1328.163, 1761.888 1325.549, 1760.520 1322.693 C 1759.152 1319.837, 1756.901 1315.482, 1755.517 1313.015 C 1754.133 1310.549, 1753 1307.763, 1753 1306.824 C 1753 1305.886, 1752.550 1304.840, 1752 1304.500 C 1751.450 1304.160, 1750.997 1302.896, 1750.994 1301.691 C 1750.990 1300.486, 1750.283 1298.150, 1749.421 1296.500 C 1747.053 1291.963, 1746.945 1274.823, 1749.270 1272.254 C 1750.221 1271.203, 1751 1270.010, 1751 1269.605 C 1751 1267.585, 1757.464 1260.936, 1767.910 1252.208 C 1774.285 1246.882, 1781.278 1240.832, 1783.451 1238.762 C 1785.625 1236.693, 1787.762 1235, 1788.201 1235 C 1788.641 1235, 1789 1234.550, 1789 1234.001 C 1789 1233.452, 1791.363 1230.535, 1794.250 1227.520 C 1798.832 1222.736, 1801.642 1218.086, 1807.559 1205.500 C 1813.259 1193.374, 1813.043 1168.643, 1807.186 1162.786 C 1806.534 1162.134, 1806 1161.006, 1806 1160.280 C 1806 1155.235, 1788.795 1135.206, 1772.995 1121.857 C 1769.973 1119.303, 1764.350 1114.555, 1760.500 1111.305 C 1756.650 1108.054, 1750.575 1103.213, 1747 1100.546 C 1743.425 1097.879, 1740.140 1095.090, 1739.700 1094.349 C 1739.260 1093.607, 1738.360 1092.999, 1737.700 1092.999 C 1737.040 1092.998, 1735.150 1091.819, 1733.500 1090.378 C 1731.850 1088.937, 1728.047 1085.900, 1725.049 1083.629 C 1710.599 1072.684, 1681 1043.031, 1681 1039.500 C 1681 1039.108, 1679.763 1037.148, 1678.250 1035.144 C 1674.552 1030.244, 1671.683 1024.984, 1672.346 1024.321 C 1672.643 1024.024, 1672.012 1022.149, 1670.943 1020.155 C 1669.874 1018.161, 1669 1015.115, 1669 1013.387 C 1669 1011.658, 1668.325 1008.629, 1667.500 1006.654 C 1665.382 1001.586, 1665.382 945.628, 1667.500 936 C 1668.286 932.425, 1668.961 925.900, 1669 921.500 C 1669.038 917.100, 1669.720 909.900, 1670.515 905.500 C 1672.202 896.166, 1672.544 862.561, 1670.994 858.485 C 1670.441 857.030, 1669.583 851.176, 1669.089 845.477 C 1668.594 839.778, 1667.865 834.591, 1667.470 833.952 C 1667.075 833.312, 1666.370 828.674, 1665.903 823.644 C 1664.773 811.463, 1663.235 801.950, 1662 799.500 C 1661.445 798.400, 1660.571 794.800, 1660.058 791.500 C 1659.545 788.200, 1658.371 783.025, 1657.450 780 C 1656.529 776.975, 1655.443 772.475, 1655.036 770 C 1654.630 767.525, 1653.558 764.150, 1652.655 762.500 C 1651.751 760.850, 1651.010 758.931, 1651.006 758.236 C 1651.003 757.541, 1650.613 756.191, 1650.141 755.236 C 1648.606 752.133, 1646 743.285, 1646 741.175 C 1646 740.044, 1645.579 738.858, 1645.064 738.539 C 1644.549 738.221, 1643.120 734.707, 1641.888 730.730 C 1640.656 726.754, 1639.053 722.612, 1638.324 721.527 C 1637.596 720.443, 1637 718.822, 1637 717.926 C 1637 717.031, 1635.875 714.182, 1634.500 711.596 C 1633.125 709.010, 1632 706.368, 1632 705.724 C 1632 704.142, 1621.145 681.625, 1616.465 673.500 C 1615.198 671.300, 1614.125 668.890, 1614.081 668.144 C 1614.036 667.399, 1612.851 665.423, 1611.447 663.755 C 1610.043 662.086, 1608.639 659.444, 1608.327 657.883 C 1608.014 656.322, 1607.138 654.530, 1606.379 653.900 C 1605.621 653.270, 1605 652.389, 1605 651.941 C 1605 651.493, 1602.975 648.169, 1600.500 644.553 C 1598.025 640.938, 1596 637.730, 1596 637.424 C 1596 637.117, 1594.875 635.392, 1593.500 633.589 C 1592.125 631.786, 1591 629.996, 1591 629.611 C 1591 629.226, 1588.862 626.057, 1586.250 622.569 C 1583.638 619.080, 1580.825 615.222, 1580 613.995 C 1579.175 612.768, 1577.263 610.021, 1575.750 607.891 C 1574.237 605.760, 1573 603.730, 1573 603.380 C 1573 603.029, 1571.537 601.081, 1569.750 599.050 C 1563.974 592.488, 1562.001 590, 1561.972 589.242 C 1561.957 588.834, 1560.559 587.150, 1558.867 585.500 C 1557.174 583.850, 1553.924 580.284, 1551.645 577.576 C 1546.694 571.695, 1536.204 560.281, 1533.750 558.106 C 1532.787 557.253, 1532 556.206, 1532 555.778 C 1532 555.350, 1531.100 554.100, 1530 553 C 1528.900 551.900, 1528 551.305, 1528 551.679 C 1528 552.052, 1525.545 549.802, 1522.544 546.679 C 1519.543 543.555, 1516.828 541, 1516.510 541 C 1516.193 541, 1514.457 539.524, 1512.653 537.720 C 1508.135 533.202, 1477.295 507, 1476.496 507 C 1476.140 507, 1473.295 505.048, 1470.174 502.662 C 1467.053 500.275, 1457.525 493.769, 1449 488.204 C 1440.475 482.638, 1432.998 477.654, 1432.384 477.128 C 1431.770 476.602, 1427.270 474.034, 1422.384 471.421 C 1417.498 468.807, 1410.800 465.187, 1407.500 463.376 C 1404.200 461.565, 1400.263 459.570, 1398.750 458.943 C 1397.237 458.317, 1396 457.398, 1396 456.902 C 1396 456.406, 1395.272 456, 1394.383 456 C 1393.493 456, 1387.637 453.525, 1381.368 450.500 C 1375.100 447.475, 1369.358 445, 1368.608 445 C 1367.858 445, 1366.685 444.325, 1366 443.500 C 1365.315 442.675, 1364.023 441.986, 1363.128 441.968 C 1362.232 441.951, 1360.626 441.276, 1359.559 440.468 C 1358.491 439.661, 1356.828 439, 1355.862 439 C 1354.896 439, 1351.990 437.875, 1349.404 436.500 C 1346.818 435.125, 1343.930 434, 1342.986 434 C 1342.042 434, 1340.144 433.115, 1338.769 432.033 C 1337.393 430.951, 1335.982 430.351, 1335.632 430.701 C 1335.283 431.050, 1333.985 430.871, 1332.748 430.302 C 1328.060 428.145, 1319.409 425, 1318.165 425 C 1317.452 425, 1315.886 424.470, 1314.684 423.822 C 1313.483 423.175, 1311.600 422.555, 1310.500 422.446 C 1309.400 422.336, 1306.025 421.248, 1303 420.027 C 1299.975 418.806, 1295.925 417.453, 1294 417.021 C 1292.075 416.588, 1287.800 415.462, 1284.500 414.517 C 1281.200 413.572, 1276.174 412.218, 1273.331 411.509 C 1270.488 410.799, 1267.579 409.858, 1266.867 409.418 C 1265.585 408.625, 1261.506 407.747, 1251.118 406.028 C 1248.159 405.538, 1245.256 404.656, 1244.668 404.068 C 1244.081 403.481, 1241.876 403, 1239.768 403 C 1237.660 403, 1234.320 402.325, 1232.346 401.500 C 1230.371 400.675, 1227.400 400, 1225.743 400 C 1222.348 400, 1212.694 398.515, 1203 396.502 C 1199.425 395.760, 1193.180 394.860, 1189.123 394.503 C 1185.065 394.146, 1180.674 393.446, 1179.363 392.948 C 1176.391 391.818, 1158.743 390.188, 1136.500 388.990 C 1127.150 388.487, 1113.650 387.625, 1106.500 387.074 C 1092.043 385.962, 1070.711 385.971, 1052.500 387.097 M 2065.898 1115.423 C 2065.679 1115.635, 2063.925 1115.941, 2062 1116.102 C 2060.075 1116.264, 2057.938 1116.812, 2057.250 1117.320 C 2056.563 1117.829, 2056 1117.979, 2056 1117.654 C 2056 1116.971, 2046.704 1122.307, 2036.356 1128.929 C 2032.427 1131.443, 2027.252 1134.729, 2024.856 1136.231 C 2019.458 1139.615, 2019.216 1139.771, 2004.695 1149.250 C 1998.165 1153.513, 1992.567 1157, 1992.255 1157 C 1991.944 1157, 1990.214 1158.125, 1988.411 1159.500 C 1986.608 1160.875, 1984.874 1162, 1984.557 1162 C 1984.239 1162, 1979.902 1164.700, 1974.919 1168 C 1969.936 1171.300, 1965.660 1174, 1965.418 1174 C 1965.176 1174, 1962.340 1175.800, 1959.117 1178 C 1955.894 1180.200, 1952.787 1182, 1952.212 1182 C 1951.637 1182, 1951.017 1182.338, 1950.833 1182.750 C 1950.499 1183.503, 1942.807 1188.836, 1940 1190.262 C 1939.175 1190.681, 1937.294 1191.806, 1935.820 1192.762 C 1934.347 1193.718, 1928.722 1197.274, 1923.320 1200.664 C 1917.919 1204.055, 1911.475 1208.243, 1909 1209.971 C 1906.525 1211.700, 1902.250 1214.452, 1899.500 1216.087 C 1896.750 1217.722, 1892.475 1220.398, 1890 1222.034 C 1887.525 1223.669, 1884.237 1225.793, 1882.693 1226.754 C 1881.149 1227.714, 1875.749 1231.142, 1870.693 1234.371 C 1865.637 1237.599, 1859.550 1241.424, 1857.168 1242.871 C 1854.785 1244.317, 1848.554 1248.313, 1843.322 1251.750 C 1838.089 1255.188, 1833.467 1258, 1833.049 1258 C 1830.628 1258, 1820.693 1270.699, 1819.750 1275 C 1816.465 1289.972, 1822.060 1303.132, 1834 1308.518 C 1835.925 1309.386, 1838.312 1310.544, 1839.305 1311.091 C 1846.717 1315.175, 1859.123 1312.458, 1871.639 1304.011 C 1874.093 1302.355, 1876.308 1301, 1876.561 1301 C 1876.815 1301, 1879.660 1299.200, 1882.883 1297 C 1886.106 1294.800, 1888.997 1293, 1889.308 1293 C 1889.619 1293, 1892.831 1290.975, 1896.447 1288.500 C 1900.062 1286.025, 1903.259 1284, 1903.552 1284 C 1903.846 1284, 1906.522 1282.200, 1909.500 1280 C 1912.478 1277.800, 1915.177 1276, 1915.497 1276 C 1915.817 1276, 1918.418 1274.425, 1921.276 1272.500 C 1924.135 1270.575, 1926.836 1269, 1927.278 1269 C 1927.721 1269, 1928.974 1268.171, 1930.061 1267.158 C 1931.149 1266.144, 1934.767 1263.782, 1938.100 1261.908 C 1941.434 1260.033, 1945.363 1257.551, 1946.831 1256.391 C 1948.299 1255.231, 1950.884 1253.572, 1952.575 1252.705 C 1956.093 1250.902, 1968.261 1243.054, 1972.033 1240.155 C 1973.426 1239.084, 1978.826 1235.706, 1984.033 1232.648 C 1989.240 1229.590, 1993.950 1226.719, 1994.500 1226.269 C 1995.050 1225.818, 1998.441 1223.661, 2002.036 1221.475 C 2010.570 1216.284, 2010.340 1216.432, 2020.359 1209.750 C 2025.102 1206.588, 2029.366 1204, 2029.836 1204 C 2030.306 1204, 2031.505 1203.100, 2032.500 1202 C 2033.495 1200.900, 2034.860 1200, 2035.533 1200 C 2036.205 1200, 2037.281 1199.366, 2037.924 1198.592 C 2038.566 1197.818, 2040.534 1196.454, 2042.296 1195.561 C 2044.058 1194.669, 2048.875 1191.738, 2053 1189.048 C 2057.125 1186.358, 2065.675 1180.917, 2072 1176.956 C 2095.414 1162.296, 2102.096 1148.870, 2093.939 1132.881 C 2090.221 1125.592, 2078.800 1115.534, 2076.666 1117.668 C 2076.373 1117.961, 2075.541 1117.830, 2074.817 1117.378 C 2074.092 1116.926, 2072.851 1116.458, 2072.059 1116.339 C 2071.266 1116.219, 2069.645 1115.877, 2068.457 1115.579 C 2067.269 1115.280, 2066.118 1115.210, 2065.898 1115.423 M 2081.500 1360.619 C 2077.650 1360.792, 2043.450 1361.403, 2005.500 1361.976 C 1906.496 1363.472, 1849.939 1364.962, 1847.750 1366.134 C 1846.716 1366.687, 1844.990 1367.309, 1843.915 1367.516 C 1832.265 1369.760, 1822.960 1388.452, 1826.910 1401.679 C 1829.511 1410.391, 1841.942 1424.392, 1844.661 1421.673 C 1844.947 1421.387, 1847.053 1421.829, 1849.340 1422.655 C 1852.869 1423.930, 1858.661 1424.065, 1887.500 1423.543 C 1906.200 1423.205, 1941.075 1422.733, 1965 1422.495 C 2011.511 1422.033, 2050.450 1421.315, 2095.556 1420.088 L 2123.612 1419.324 2129.795 1416.029 C 2152.494 1403.930, 2152.049 1374.364, 2129 1363.185 C 2123.351 1360.445, 2106.104 1359.514, 2081.500 1360.619 M 1842.492 1489.696 C 1834.303 1492.089, 1815.286 1508, 1820.614 1508 C 1820.961 1508, 1820.771 1508.571, 1820.191 1509.270 C 1819.175 1510.495, 1819.244 1522.555, 1820.300 1528.131 C 1821.517 1534.564, 1826.635 1539.618, 1841 1548.575 C 1846.775 1552.176, 1854.875 1557.320, 1859 1560.006 C 1863.125 1562.692, 1868.300 1565.857, 1870.500 1567.038 C 1872.700 1568.219, 1875.400 1569.958, 1876.500 1570.901 C 1877.600 1571.845, 1882.775 1575.233, 1888 1578.430 C 1893.225 1581.627, 1898.739 1585.102, 1900.253 1586.154 C 1904.662 1589.214, 1909.466 1592.280, 1914.900 1595.500 C 1917.684 1597.150, 1919.971 1598.838, 1919.981 1599.250 C 1919.992 1599.662, 1920.472 1600, 1921.049 1600 C 1921.625 1600, 1924.807 1601.800, 1928.119 1604 C 1931.431 1606.200, 1934.376 1608, 1934.662 1608 C 1934.948 1608, 1937.729 1609.743, 1940.841 1611.873 C 1943.953 1614.004, 1949.200 1617.446, 1952.500 1619.523 C 1955.800 1621.599, 1961.495 1625.256, 1965.155 1627.649 C 1968.816 1630.042, 1972.043 1632, 1972.327 1632 C 1972.913 1632, 1985.199 1639.929, 1989 1642.761 C 1990.375 1643.785, 1993.300 1645.690, 1995.500 1646.994 C 1997.700 1648.299, 2002.425 1651.241, 2006 1653.533 C 2019.203 1661.998, 2021.511 1663.435, 2022 1663.494 C 2022.275 1663.527, 2027.675 1666.949, 2034 1671.098 C 2059.015 1687.509, 2065.579 1689.273, 2078.645 1683.091 C 2084.941 1680.113, 2093 1673.672, 2093 1671.619 C 2093 1670.987, 2093.900 1668.791, 2095 1666.739 C 2100.071 1657.278, 2091.259 1632, 2082.891 1632 C 2082.067 1632, 2076.581 1628.458, 2073.966 1626.238 C 2071.632 1624.256, 2062.110 1618, 2061.429 1618 C 2061.088 1618, 2055.789 1614.716, 2049.654 1610.702 C 2033.486 1600.124, 2022.541 1593.235, 2011.500 1586.686 C 2010.400 1586.034, 2007.281 1583.925, 2004.569 1582 C 2001.857 1580.075, 1997.699 1577.375, 1995.329 1576 C 1991.136 1573.567, 1968.429 1559.208, 1957.120 1551.837 C 1954.029 1549.823, 1949.025 1546.724, 1946 1544.950 C 1942.975 1543.176, 1939.175 1540.618, 1937.556 1539.264 C 1935.937 1537.911, 1933.687 1536.399, 1932.556 1535.904 C 1930.136 1534.846, 1929.254 1534.300, 1917.763 1526.750 C 1912.949 1523.588, 1908.752 1521, 1908.436 1521 C 1907.782 1521, 1898.765 1514.961, 1898 1514.011 C 1897.725 1513.670, 1893.675 1511.207, 1889 1508.538 C 1881.230 1504.103, 1874.257 1499.460, 1873 1497.885 C 1871.930 1496.543, 1860.224 1491.143, 1855.068 1489.612 C 1848.834 1487.761, 1849.119 1487.760, 1842.492 1489.696" stroke="none" fill="#2c6b84" fill-rule="evenodd"/></svg>